<?xml version="1.0" encoding="UTF-8"?>
<svg width="728" height="234" viewBox="0 0 728 234" xmlns="http://www.w3.org/2000/svg" xmlns:xlink="http://www.w3.org/1999/xlink">
    <g>
        <path fill="none" stroke="#c84a67" stroke-width="15" stroke-linecap="round" stroke-linejoin="round" d="M 52.625 8 L 52.625 35.375 M 180.375 8 L 180.375 35.375 M 7 199.625 L 7 62.75 C 7 47.631195 19.256207 35.375 34.375 35.375 L 198.625 35.375 C 213.743805 35.375 226 47.631195 226 62.75 L 226 199.625 M 7 199.625 C 7 214.743805 19.256207 227 34.375 227 L 198.625 227 C 213.743805 227 226 214.743805 226 199.625 M 7 199.625 L 7 108.375 C 7 93.25621 19.256207 81 34.375 81 L 198.625 81 C 213.743805 81 226 93.25621 226 108.375 L 226 199.625"/>
        <path fill="none" stroke="#c84a67" stroke-width="15" stroke-linecap="round" stroke-linejoin="round" d="M 108.513687 117.389214 L 108.513687 138.694244 C 108.513702 140.91922 107.629852 143.05307 106.056557 144.626389 L 90.803001 159.879944 M 108.513687 117.389214 C 107.577812 117.474976 106.645676 117.575638 105.717262 117.694962 M 108.513687 117.389214 C 114.094498 116.870262 119.711418 116.870262 125.292229 117.389214 M 125.292229 117.389214 L 125.292229 138.694244 C 125.292229 140.920197 126.175903 143.056671 127.749359 144.626389 L 145.985764 162.862793 M 125.292229 117.389214 C 126.228104 117.474976 127.160248 117.575638 128.088654 117.694962 M 145.985764 162.862793 L 140.131927 164.328125 C 132.328033 166.256531 124.092316 165.340439 116.902962 161.744232 C 109.7136 158.148041 101.47789 157.231918 93.673996 159.160339 L 90.803001 159.879944 M 145.985764 162.862793 L 151.213226 168.09024 C 155.806808 172.683838 153.63678 180.461639 147.234848 181.554108 C 137.2146 183.262268 127.067749 184.119171 116.902962 184.115631 C 106.563644 184.115631 96.429405 183.23941 86.571075 181.554108 C 80.165398 180.461639 77.995377 172.683838 82.592697 168.093979 L 90.803001 159.879944"/>
    </g>
</svg>
